<svg width="20" height="20" viewBox="0 0 20 20" fill="none" xmlns="http://www.w3.org/2000/svg">
<path fill-rule="evenodd" clip-rule="evenodd" d="M4.00012 5C2.89555 5 2.00012 5.89543 2.00012 7V15C2.00012 16.1046 2.89555 17 4.00012 17H16.0001C17.1047 17 18.0001 16.1046 18.0001 15V7C18.0001 5.89543 17.1047 5 16.0001 5H14.4143C14.1491 5 13.8948 4.89464 13.7072 4.70711L12.5859 3.58579C12.2108 3.21071 11.7021 3 11.1717 3H8.82855C8.29812 3 7.78941 3.21071 7.41434 3.58579L6.29302 4.70711C6.10548 4.89464 5.85113 5 5.58591 5H4.00012ZM10.0001 14C11.657 14 13.0001 12.6569 13.0001 11C13.0001 9.34315 11.657 8 10.0001 8C8.34327 8 7.00012 9.34315 7.00012 11C7.00012 12.6569 8.34327 14 10.0001 14Z" fill="#ffffff"/>
</svg>
