<svg width="215" height="60" viewBox="0 0 215 60" fill="none" xmlns="http://www.w3.org/2000/svg">
<path d="M25.2 53.9C25.0667 53.9667 24.9333 54 24.8 54C24.6667 53.9333 24.5667 53.9333 24.5 54C24.5 54.0667 24.3667 54.0333 24.1 53.9C23.9 54.2333 23.7 54.5667 23.5 54.9C23.3 55.1667 23.0333 55.2333 22.7 55.1C22.5667 55.2333 22.4 55.3667 22.2 55.5C22.0667 55.5667 21.9 55.7 21.7 55.9C21.6333 55.9667 21.6 55.9667 21.6 55.9C21.4 56.0333 21 56.2 20.4 56.4C19.8667 56.6 19.3 56.8 18.7 57C18.1 57.2667 17.5333 57.5 17 57.7C16.5333 57.9 16.2333 58.0667 16.1 58.2C15.7 58.2 15.2333 58.2667 14.7 58.4C14.2333 58.5333 13.8333 58.7333 13.5 59C12.7 59.1333 11.7667 59.3 10.7 59.5C9.7 59.7667 8.6 59.7333 7.4 59.4C7.06667 59.3333 6.9 59.3 6.9 59.3C6.9 59.3667 6.93333 59.4333 7 59.5C7.06667 59.5667 7.1 59.6333 7.1 59.7C7.1 59.7667 6.96667 59.8 6.7 59.8C6.7 59.5333 6.63333 59.3667 6.5 59.3C6.36667 59.3 6.23333 59.3 6.1 59.3C5.96667 59.1667 5.8 59.0333 5.6 58.9C5.46667 58.8333 5.23333 58.7667 4.9 58.7C3.63333 57.5 2.6 56.1333 1.8 54.6C1 53 0.5 51.2333 0.3 49.3C0.3 49.1 0.333333 48.9 0.4 48.7C0.466667 48.4333 0.466667 48.2333 0.4 48.1V43.7C0.4 43.5667 0.433333 43.4667 0.5 43.4C0.633333 43.2667 0.666667 43.1333 0.6 43L0.9 40.7C0.9 40.5 0.866667 40.3667 0.8 40.3C0.8 40.1667 0.8 40.0333 0.8 39.9L0.9 39.8C1.03333 39.8 1.1 39.7333 1.1 39.6C1.23333 39.4667 1.26667 39.3667 1.2 39.3C1.13333 39.2333 1.1 39.1333 1.1 39L1.7 37.2C1.76667 37.0667 1.8 36.9667 1.8 36.9C1.86667 36.7667 1.83333 36.6 1.7 36.4C1.76667 36.2667 1.9 36.2667 2.1 36.4C2.16667 36.0667 2.23333 35.7333 2.3 35.4C2.36667 35.0667 2.33333 34.7667 2.2 34.5H2.3C2.43333 34.3667 2.5 34.2333 2.5 34.1C2.5 33.9667 2.56667 33.9 2.7 33.9C2.76667 32.9 3.03333 32.0333 3.5 31.3C3.96667 30.5 4.23333 29.6333 4.3 28.7C4.76667 28.5 4.93333 28.2 4.8 27.8C4.93333 27.8 5 27.7 5 27.5C5 27.2333 5.06667 27.0667 5.2 27V26.9V26.7C5.86667 25.8333 6.23333 24.9333 6.3 24C7.36667 22.5333 8.13333 21.0667 8.6 19.6C8.86667 19.5333 9 19.4333 9 19.3C9.06667 19.1 9.13333 18.9 9.2 18.7C9.53333 18.1667 9.86667 17.5333 10.2 16.8C10.5333 16.0667 11 15.4333 11.6 14.9C11.8 14.4333 12.0667 13.9667 12.4 13.5C12.7333 13.0333 13.0667 12.5333 13.4 12C14.5333 10.4 15.6667 8.8 16.8 7.2C17.9333 5.53333 19.4667 4.06667 21.4 2.8C21.7333 2.46667 22.1 2.23333 22.5 2.1C22.9 1.96666 23.3667 1.8 23.9 1.6C25.4333 0.666664 27 0.766665 28.6 1.9C28.9333 2.16667 29.3333 2.36667 29.8 2.5C30.2667 2.56666 30.6 2.83333 30.8 3.3C31.0667 3.36666 31.1667 3.46666 31.1 3.6C31.1 3.66666 31.1333 3.8 31.2 4C31.2667 4.13333 31.3667 4.26667 31.5 4.4C31.6333 4.53333 31.6333 4.7 31.5 4.9C31.4333 5.03333 31.4333 5.16667 31.5 5.3C31.6333 5.43333 31.6 5.63333 31.4 5.9C31.3333 6.23333 31.0667 6.63333 30.6 7.1L30.4 8.6L29.7 9.4C29.5 9.93333 29.3 10.4667 29.1 11C28.9 11.4667 28.6333 11.9 28.3 12.3C27.9 13.9 27.1667 15.3333 26.1 16.6C25.0333 17.8667 24.0667 19.2 23.2 20.6C22.5333 21.3333 21.9667 22.1667 21.5 23.1C21.1 24.0333 20.6 24.9 20 25.7C19.8 25.8333 19.5667 26 19.3 26.2C19.1 26.4 19 26.6667 19 27C18.1333 27.7333 17.4333 28.5333 16.9 29.4C16.4333 30.2667 15.8 31.1333 15 32C14.8667 32.4667 14.6333 32.8 14.3 33C13.9667 33.1333 13.7333 33.4333 13.6 33.9C13.4667 34.0333 13.3333 34.1333 13.2 34.2C13.0667 34.2 13.0333 34.3333 13.1 34.6C12.7 34.7333 12.3667 35.0667 12.1 35.6C11.9 36.1333 11.6333 36.5 11.3 36.7C11.2333 36.9 11.0667 37.1 10.8 37.3C10.6 37.5 10.4333 37.6333 10.3 37.7C9.83333 38.1667 9.3 38.8 8.7 39.6C8.16667 40.3333 7.33333 41.0667 6.2 41.8C6.06667 42 5.93333 42.1 5.8 42.1V42.8C5.46667 44.2 5.23333 45.8 5.1 47.6C5.03333 49.3333 5.2 51.0667 5.6 52.8C5.86667 53.8 6.06667 54.3333 6.2 54.4C6.33333 54.4667 6.43333 54.4333 6.5 54.3C6.63333 54.1667 6.7 54.1333 6.7 54.2C6.76667 54.2667 6.86667 54.7333 7 55.6C7 55.6667 7.03333 55.7 7.1 55.7H7.3C7.36667 55.7667 7.46667 55.8 7.6 55.8C8.86667 56 9.73333 56.0667 10.2 56C10.7333 56 11.3667 55.8333 12.1 55.5C13.1667 55.1 14.1667 54.7333 15.1 54.4C16.1 54 17.0333 53.5333 17.9 53C17.9 53.0667 17.9667 53.1 18.1 53.1H18.2V53.2C18.3333 53.2 18.3667 53.1333 18.3 53C18.4333 53 18.5 53 18.5 53C18.5 52.9333 18.5333 52.9 18.6 52.9H18.8L19.1 52.6C20.2333 52.0667 21.2667 51.3667 22.2 50.5C23.2 49.5667 24.2667 48.8333 25.4 48.3C25.4 48.1 25.4667 48 25.6 48C25.7333 47.9333 25.8 47.8 25.8 47.6C25.8667 47.6 25.8667 47.6333 25.8 47.7C25.8 47.7667 25.8667 47.7333 26 47.6C26.6667 47.2667 27.2333 47 27.7 46.8C28.2333 46.5333 28.4667 46.1333 28.4 45.6C28.5333 45.6 28.6 45.6333 28.6 45.7C28.6 45.7667 28.6333 45.8 28.7 45.8C28.9667 45.4667 29.1667 45.2333 29.3 45.1C29.4333 44.9667 29.5667 44.8667 29.7 44.8C29.8333 44.7333 29.9667 44.6667 30.1 44.6C30.3 44.4667 30.5667 44.2333 30.9 43.9C30.7 43.7 30.6667 43.6 30.8 43.6C30.9333 43.5333 31.0333 43.4333 31.1 43.3C31.2333 43.4333 31.2333 43.5333 31.1 43.6C31.0333 43.6 31.0333 43.6667 31.1 43.8C31.6333 43.2 32.1333 42.6333 32.6 42.1C33.1333 41.5667 33.4333 41.4333 33.5 41.7C33.9 41.3667 34.0667 41.2 34 41.2C34 41.1333 33.9333 41.1 33.8 41.1C33.7333 41.1 33.6667 41.1 33.6 41.1C33.6 41.0333 33.8 40.8667 34.2 40.6C34.5333 40.5333 34.8 40.6 35 40.8C34.9333 41.2667 35.1 41.5333 35.5 41.6C35.2333 41.7333 35.1333 41.8667 35.2 42C35.3333 42.1333 35.4333 42.2667 35.5 42.4C35.5 42.6667 35.4667 42.8667 35.4 43C35.3333 43.6667 35.2333 44.1333 35.1 44.4C35.0333 44.6 34.9333 44.7333 34.8 44.8C34.7333 44.8667 34.6333 44.9333 34.5 45C34.4333 45 34.4 45.1 34.4 45.3C34.4 45.4333 34.4333 45.5333 34.5 45.6V45.7C34.4333 45.7667 34.3667 45.7333 34.3 45.6C34.3 45.4667 34.2333 45.3667 34.1 45.3C34.1 45.4333 34.0667 45.5667 34 45.7C34 45.8333 34.0667 45.9333 34.2 46C33.9333 46.2 33.7333 46.3333 33.6 46.4C33.4667 46.4667 33.3667 46.5 33.3 46.5C33.3 46.5 33.2667 46.5333 33.2 46.6C33.1333 46.6667 33.0333 46.8333 32.9 47.1C32.9 47.1 32.9 47.0667 32.9 47V46.9C32.6333 46.8333 32.5 46.9333 32.5 47.2C32.5 47.4 32.4 47.5667 32.2 47.7C32.0667 47.5667 32.0333 47.4667 32.1 47.4C32.2333 47.3333 32.2667 47.2333 32.2 47.1C32.0667 47.0333 31.9333 47.1 31.8 47.3C31.7333 47.4333 31.6333 47.4 31.5 47.2C31.4333 47.3333 31.3667 47.5667 31.3 47.9C31.2333 48.2333 31.1 48.4667 30.9 48.6C30.7667 48.6 30.7333 48.5333 30.8 48.4C30.9333 48.2 31 48.0333 31 47.9C30.6 48.1667 30.3667 48.4 30.3 48.6C30.1 48.8 30 48.9 30 48.9C30 48.9667 30.0667 49 30.2 49C30.2 49.1333 30.1667 49.3 30.1 49.5C30.0333 49.6333 29.8333 49.7667 29.5 49.9C29.3667 50.5 29.0333 50.8 28.5 50.8C28.5 50.8 28.5333 50.7333 28.6 50.6V50.4C28.2 50.4 28.0667 50.5333 28.2 50.8C28.0667 50.7333 27.9667 50.7667 27.9 50.9C27.8333 51.0333 27.7 51.0333 27.5 50.9C27.3667 51.0333 27.3667 51.1333 27.5 51.2C27.7 51.2 27.7333 51.2 27.6 51.2C27.5333 51.2667 27.4667 51.2667 27.4 51.2C27.4 51.1333 27.3667 51.1 27.3 51.1C26.9 51.4333 26.4667 51.7667 26 52.1C25.5333 52.4333 25.1667 52.8333 24.9 53.3C24.9 53.4333 24.9333 53.5333 25 53.6C25.0667 53.6667 25.1333 53.7667 25.2 53.9ZM7.9 34C9.3 32.2667 10.5667 30.6 11.7 29C12.8333 27.3333 14.0333 25.6333 15.3 23.9C15.3 23.8333 15.3333 23.8 15.4 23.8C15.8 23.4667 16.1 23 16.3 22.4C16.5667 21.8 16.8333 21.3333 17.1 21C18.1667 19.6 19.2 18.2 20.2 16.8C21.2667 15.3333 22.1667 13.8333 22.9 12.3C23.3667 11.4333 23.8 10.6 24.2 9.8C24.6 8.93333 24.9 8.03333 25.1 7.1C25.8333 6.63333 26.1 5.9 25.9 4.9C25.1667 5.1 24.6 5.5 24.2 6.1C23.8 6.63333 23.3333 7.1 22.8 7.5C22.5333 8.1 22.2 8.66667 21.8 9.2C21.4 9.66666 21 10.1333 20.6 10.6C18.8667 12.0667 17.5333 13.7333 16.6 15.6C15.6667 17.4667 14.7333 19.3667 13.8 21.3C13.6 21.3667 13.4333 21.4 13.3 21.4C13.1667 21.9333 12.9333 22.4 12.6 22.8C12.2667 23.1333 12.1 23.5333 12.1 24C11.7 24.5333 11.4 25.0333 11.2 25.5C11 25.9667 10.7333 26.4667 10.4 27C10.2667 27.3333 10.1 27.6667 9.9 28C9.76667 28.2667 9.63333 28.5333 9.5 28.8V29.3C9.36667 29.5667 9.2 29.8667 9 30.2C8.8 30.4667 8.73333 30.8333 8.8 31.3C8.46667 31.7 8.23333 32.1333 8.1 32.6C8.03333 33.0667 7.93333 33.5333 7.8 34H7.9ZM22.7 53.1C22.7 53.1667 22.6667 53.2 22.6 53.2C22.7333 53.2667 22.8 53.2667 22.8 53.2C22.8667 53.0667 22.9 52.9667 22.9 52.9C23.2333 52.9667 23.5 52.8667 23.7 52.6C23.9 52.2667 24.1 52 24.3 51.8C24.3 51.8667 24.3667 51.9333 24.5 52C24.6333 51.8667 24.7667 51.7333 24.9 51.6C25.1 51.4 25.1667 51.2333 25.1 51.1C24.7667 51.2333 24.4 51.4333 24 51.7C23.6 51.9 23.2333 52.2333 22.9 52.7H22.6V52.9C22.6 52.9667 22.6333 53 22.7 53C22.5667 52.9333 22.4333 52.9667 22.3 53.1C22.1667 53.2333 22.1667 53.3667 22.3 53.5C22.3667 53.5 22.4 53.4667 22.4 53.4C22.4667 53.2667 22.5667 53.1667 22.7 53.1ZM29.6 48.7C29.3333 48.8333 29.1333 48.9333 29 49C28.8667 49.0667 28.7333 49.1667 28.6 49.3C28.5333 49.3 28.5 49.3 28.5 49.3C28.5667 49.2333 28.5333 49.2 28.4 49.2C28.2667 49.3333 28.1333 49.4333 28 49.5C27.9333 49.5667 27.9333 49.7333 28 50C28.4 49.8667 28.7 49.7 28.9 49.5C29.1667 49.3 29.4 49.0333 29.6 48.7ZM33.9 44.4C33.5667 44.6 33.4 44.9 33.4 45.3C33.6 45.3667 33.8 45.3333 34 45.2C34.2 45 34.1667 44.7333 33.9 44.4ZM26.1 51.1C26.1 50.8333 26.1333 50.7 26.2 50.7C26.2 50.9667 26.2 51.1 26.2 51.1C26.4 51.1 26.5 51.0667 26.5 51C26.5667 50.9333 26.6667 50.8333 26.8 50.7C26.6 50.7 26.5 50.6333 26.5 50.5C26.3 50.5667 26.1333 50.6667 26 50.8C25.9333 50.9333 25.9667 51.0333 26.1 51.1ZM32 46.1C31.7333 46.1 31.5 46.2 31.3 46.4C31.1 46.5333 31.0333 46.6667 31.1 46.8C31.2333 46.7333 31.3333 46.6667 31.4 46.6C31.5333 46.5333 31.7333 46.3667 32 46.1ZM25.7 50.7C25.3667 50.7 25.2 50.8333 25.2 51.1C25.3333 51.1 25.4 51.0667 25.4 51C25.4667 50.9333 25.5667 50.8333 25.7 50.7ZM30.5 48.5C30.5 48.7667 30.4 48.9333 30.2 49C30.2 48.8 30.2333 48.6667 30.3 48.6C30.3 48.5333 30.3667 48.5 30.5 48.5ZM27.3 50C27.3667 50.0667 27.3333 50.2 27.2 50.4C27.1333 50.5333 27.1667 50.6 27.3 50.6C27.3667 50.4667 27.4 50.3667 27.4 50.3C27.4 50.1667 27.3667 50.0667 27.3 50ZM26.8 50.4C26.7333 50.4 26.6667 50.4333 26.6 50.5C26.6 50.5 26.5667 50.5 26.5 50.5C26.7 50.7 26.8 50.7667 26.8 50.7C26.8 50.6333 26.8 50.5333 26.8 50.4ZM2.2 38.6C2.2 38.3333 2.16667 38.1667 2.1 38.1C2.1 38.1667 2.06667 38.2667 2 38.4C2 38.4667 2.06667 38.5333 2.2 38.6ZM34.5 45.6V45.7V46.1V45.5V45.6ZM31 43.8C30.9333 43.6 30.9 43.6333 30.9 43.9L31 43.8ZM22.8 53L22.7 53.1V53H22.8ZM34.6 46.1C34.6 46.1667 34.5667 46.2 34.5 46.2C34.5 46.2 34.5 46.1667 34.5 46.1H34.6ZM76.1547 45.9C75.8214 45.8333 75.5214 46 75.2547 46.4C74.988 46.7333 74.7214 47.0667 74.4547 47.4C74.4547 47.3333 74.488 47.2333 74.5547 47.1C74.0214 47.5 73.5214 47.9333 73.0547 48.4C72.588 48.8 72.088 49.2667 71.5547 49.8H71.3547V49.7C71.2214 49.8333 71.0547 50 70.8547 50.2C70.7214 50.4 70.5547 50.4333 70.3547 50.3C70.0214 50.5 69.7547 50.7333 69.5547 51C69.4214 51.2667 69.2214 51.4333 68.9547 51.5C68.6214 51.8333 68.3547 52.1 68.1547 52.3C67.9547 52.4333 67.6547 52.6667 67.2547 53C67.2547 52.9333 67.188 52.9 67.0547 52.9C66.8547 53.1667 66.4214 53.3667 65.7547 53.5C65.0214 53.9 64.3547 54.3333 63.7547 54.8C63.2214 55.2 62.6547 55.4 62.0547 55.4C61.4547 55.4667 61.0214 55.5333 60.7547 55.6C60.488 55.6667 60.188 55.6667 59.8547 55.6C59.3214 55.6 58.6547 55.7333 57.8547 56C57.0547 56.3333 56.388 56.4 55.8547 56.2C55.7214 55.8667 55.488 55.6333 55.1547 55.5C54.8214 55.3 54.488 55.1333 54.1547 55C53.888 54.8667 53.688 54.5667 53.5547 54.1C52.8214 53.6333 52.288 52.9667 51.9547 52.1C51.6214 51.1667 51.4214 50.1333 51.3547 49C51.3547 47.8 51.4547 46.5667 51.6547 45.3C51.8547 44.0333 52.1214 42.8 52.4547 41.6C51.5214 42.3333 50.6214 43.2333 49.7547 44.3C48.888 45.3 48.0214 46.2667 47.1547 47.2C46.8214 47.8 46.4547 48.3 46.0547 48.7C45.6547 49.1 45.2547 49.4667 44.8547 49.8C43.7214 51.1333 42.6547 52.3 41.6547 53.3C41.6547 53.3667 41.6214 53.4333 41.5547 53.5C41.5547 53.5 41.5214 53.5667 41.4547 53.7C40.9214 54.1 40.3214 54.5667 39.6547 55.1C38.988 55.6333 38.288 56.0667 37.5547 56.4C36.888 56.8 36.1547 57.0333 35.3547 57.1C34.6214 57.1667 33.8547 56.9 33.0547 56.3C32.588 56.2333 32.2547 56.1 32.0547 55.9C31.9214 55.6333 31.688 55.4 31.3547 55.2C30.6214 54.8667 30.188 54.4667 30.0547 54C29.8547 53.5333 29.7214 52.8333 29.6547 51.9C29.588 51.4333 29.6547 50.8333 29.8547 50.1C29.988 49.3667 30.188 48.7333 30.4547 48.2C30.788 46.9333 31.288 45.7667 31.9547 44.7C32.6214 43.5667 33.2547 42.5333 33.8547 41.6C34.988 40.0667 36.1214 38.6667 37.2547 37.4C38.4547 36.0667 39.688 34.7667 40.9547 33.5C41.3547 33.3 41.7547 33.0333 42.1547 32.7C42.6214 32.3667 43.1214 32.1 43.6547 31.9C43.988 32.0333 44.3547 31.9667 44.7547 31.7C45.1547 31.3667 45.488 31.4333 45.7547 31.9C47.1547 32.0333 48.388 32.3667 49.4547 32.9C50.5214 33.4333 51.2547 34.3 51.6547 35.5C52.1214 35.1667 52.5547 34.8667 52.9547 34.6C53.3547 34.3333 53.788 34.1333 54.2547 34C54.4547 33.9333 54.6214 33.8 54.7547 33.6C54.888 33.4 55.0214 33.3 55.1547 33.3C55.8214 33.1667 56.4214 33.3 56.9547 33.7C57.5547 34.1 58.1214 34.4333 58.6547 34.7C58.7214 34.6333 58.788 34.6333 58.8547 34.7C58.988 34.7 59.1547 34.6667 59.3547 34.6C59.488 34.8 59.588 34.9667 59.6547 35.1C59.7214 35.1667 59.788 35.3 59.8547 35.5C59.988 36.7 59.8214 38 59.3547 39.4C58.9547 40.8 58.488 41.9667 57.9547 42.9C57.688 44.4333 57.3214 46.1 56.8547 47.9C56.388 49.7 56.3547 51.2667 56.7547 52.6C59.088 52.3333 61.0214 51.7667 62.5547 50.9C64.1547 49.9667 65.7547 49.0667 67.3547 48.2C67.9547 47.7333 68.488 47.3333 68.9547 47C69.488 46.6667 69.988 46.2333 70.4547 45.7C70.5214 45.7 70.588 45.7333 70.6547 45.8V45.9C70.988 45.9 71.6547 45.5 72.6547 44.7C73.6547 43.8333 74.6547 42.9667 75.6547 42.1C76.7214 41.1667 77.688 40.3667 78.5547 39.7C79.488 39.0333 80.0214 38.8 80.1547 39C80.288 39.1333 80.4547 39.1667 80.6547 39.1C80.8547 38.9667 81.0214 38.9333 81.1547 39C81.2214 39.1333 81.2214 39.2333 81.1547 39.3C81.1547 39.3667 81.188 39.4333 81.2547 39.5V39.3C81.3214 39.3 81.3214 39.4 81.2547 39.6C81.188 39.7333 81.1214 39.9 81.0547 40.1C80.988 40.2333 80.9214 40.3333 80.8547 40.4C80.788 40.4667 80.788 40.4 80.8547 40.2C80.7214 40.3333 80.5547 40.5 80.3547 40.7C80.2214 40.8333 80.088 40.9667 79.9547 41.1C79.8214 41.4333 79.7214 41.6667 79.6547 41.8C79.6547 41.9333 79.588 42.1667 79.4547 42.5C79.2547 42.5 79.1214 42.4667 79.0547 42.4C78.9214 42.7333 78.7214 42.9667 78.4547 43.1C78.2547 43.2333 78.088 43.5 77.9547 43.9C77.8214 43.9 77.688 44.0667 77.5547 44.4L76.1547 45.9ZM48.8547 37.3C48.7214 36.4333 48.4547 35.7 48.0547 35.1C47.7214 34.5 47.088 34.4333 46.1547 34.9L44.5547 36.7C44.4214 36.9 44.2547 37.0667 44.0547 37.2C43.8547 37.2667 43.688 37.3667 43.5547 37.5C43.4214 37.6333 43.288 37.8333 43.1547 38.1C43.0214 38.3 42.8547 38.5333 42.6547 38.8L41.2547 40.4C40.5214 41.3333 39.788 42.4 39.0547 43.6C38.388 44.7333 37.788 45.8333 37.2547 46.9C37.1214 47.2333 36.9547 47.5333 36.7547 47.8C36.5547 48.0667 36.388 48.4667 36.2547 49C36.1214 48.9333 36.0547 48.9667 36.0547 49.1C36.0547 49.1667 36.0214 49.1667 35.9547 49.1C35.8214 49.8333 35.588 50.4667 35.2547 51C34.9214 51.4667 34.7547 52.1 34.7547 52.9C35.288 52.5667 35.8547 52.2333 36.4547 51.9C37.0547 51.5667 37.5547 51.2 37.9547 50.8C39.888 48.9333 41.7214 47 43.4547 45C45.2547 42.9333 47.0214 40.8333 48.7547 38.7C48.9547 38.5667 49.1214 38.4 49.2547 38.2C49.388 37.9333 49.5547 37.7667 49.7547 37.7V37.5C49.6214 37.3667 49.3214 37.3 48.8547 37.3ZM105.119 27.7C105.052 27.9 105.052 28.0333 105.119 28.1C105.185 28.1 105.252 28.1 105.319 28.1C105.385 28.0333 105.419 28 105.419 28C105.485 28 105.452 28.0667 105.319 28.2C105.452 28.3333 105.419 28.4 105.219 28.4C105.085 28.4 105.085 28.4 105.219 28.4C105.285 28.6667 105.485 28.9333 105.819 29.2C106.219 29.4 106.252 29.5667 105.919 29.7C105.719 30.0333 105.485 30.3 105.219 30.5C105.019 30.7 104.819 30.9 104.619 31.1C104.419 31.5667 104.119 31.9667 103.719 32.3C103.385 32.6333 103.052 32.9667 102.719 33.3C102.652 33.3 102.619 33.3333 102.619 33.4C102.619 33.4667 102.585 33.5 102.519 33.5C102.252 34.0333 101.919 34.4667 101.519 34.8C101.185 35.1333 100.919 35.5667 100.719 36.1C100.385 36.2333 100.152 36.4 100.019 36.6C99.9521 36.7333 99.7521 36.8333 99.4188 36.9C97.8188 38.7 96.1521 40.6333 94.4188 42.7C92.6854 44.7667 90.8188 47.4 88.8188 50.6C88.4854 50.8 88.1854 51.1 87.9188 51.5C87.7188 51.8333 87.4854 52.2333 87.2188 52.7C87.2188 52.8333 87.1854 52.9 87.1188 52.9C87.0521 52.8333 86.9854 52.8333 86.9188 52.9C86.7854 53.1 86.6521 53.3333 86.5188 53.6C86.4521 53.8 86.3188 53.9667 86.1188 54.1C85.7854 54.5667 85.5188 54.9667 85.3188 55.3C85.1188 55.6333 84.8521 56 84.5188 56.4C84.2521 56.7333 84.0188 56.9667 83.8188 57.1C83.6854 57.3 83.5188 57.4667 83.3188 57.6C82.9188 57.9333 82.4521 58.1 81.9188 58.1C81.4521 58.1 80.9188 58 80.3188 57.8C79.7854 57.6667 79.2521 57.4667 78.7188 57.2C78.1854 56.9333 77.7188 56.7 77.3188 56.5C76.7188 55.5 76.4188 54.4667 76.4188 53.4C76.4188 52.2667 76.4188 51.0667 76.4188 49.8C76.4188 49.6667 76.3854 49.5 76.3188 49.3C76.3188 49.1 76.3521 48.8667 76.4188 48.6C76.3521 48.0667 76.3188 47.5667 76.3188 47.1C76.3854 46.6333 76.4521 46.1667 76.5188 45.7C76.5188 45.2333 76.5521 44.5333 76.6188 43.6C76.7521 42.6667 76.8854 41.6667 77.0188 40.6C77.1521 39.5333 77.2854 38.5 77.4188 37.5C77.6188 36.4333 77.8188 35.6 78.0188 35C78.2854 34.2667 78.3854 33.8 78.3188 33.6C78.3188 33.3333 78.2521 33.0333 78.1188 32.7C78.1854 32.7667 78.2854 32.7333 78.4188 32.6C78.5521 32.4667 78.7188 32.3333 78.9188 32.2C79.3188 32.4 79.7854 32.5333 80.3188 32.6C80.8521 32.6 81.3521 32.6667 81.8188 32.8C82.2854 32.8667 82.6854 33 83.0188 33.2C83.4188 33.4 83.6188 33.7667 83.6188 34.3C83.6188 34.4333 83.5521 34.7 83.4188 35.1C83.3521 35.3 83.2854 35.4667 83.2188 35.6L82.7188 38.1C82.7188 38.4333 82.6188 38.9667 82.4188 39.7C82.2854 40.4333 82.1521 41.2333 82.0188 42.1C81.8854 42.9667 81.7188 43.7667 81.5188 44.5C81.3854 45.2333 81.3188 45.7333 81.3188 46C81.2521 47.3333 81.1521 48.6667 81.0188 50C80.8854 51.2667 80.8854 52.5333 81.0188 53.8C82.2188 52.4667 83.2854 51.1 84.2188 49.7C85.2188 48.2333 86.2188 46.8667 87.2188 45.6C88.3521 44.1333 89.1521 42.9667 89.6188 42.1C90.0854 41.2333 90.7854 40.4 91.7188 39.6C91.8521 39.4 92.0188 39.2333 92.2188 39.1C92.4188 38.9 92.5854 38.7 92.7188 38.5C92.9188 38.3 93.0854 38.1 93.2188 37.9C93.3521 37.6333 93.5521 37.4333 93.8188 37.3C94.3521 36.3667 94.9854 35.6 95.7188 35C96.4521 34.3333 97.0854 33.5333 97.6188 32.6C97.8854 32.3333 98.1521 32.0667 98.4188 31.8C98.7521 31.4667 99.0188 31.1 99.2188 30.7C99.4854 30.5 99.6854 30.2667 99.8188 30C100.019 29.6667 100.285 29.3 100.619 28.9C100.952 28.8333 101.219 28.6667 101.419 28.4C101.685 28.1333 101.985 27.9 102.319 27.7C102.452 27.7 102.585 27.7 102.719 27.7C102.852 27.6333 102.919 27.5 102.919 27.3C103.185 27.4333 103.352 27.5333 103.419 27.6C103.485 27.6667 103.585 27.7 103.719 27.7C104.052 27.5667 104.252 27.5 104.319 27.5C104.385 27.5 104.652 27.5667 105.119 27.7ZM127.739 53.9C127.606 53.9667 127.472 54 127.339 54C127.206 53.9333 127.106 53.9333 127.039 54C127.039 54.0667 126.906 54.0333 126.639 53.9C126.439 54.2333 126.239 54.5667 126.039 54.9C125.839 55.1667 125.572 55.2333 125.239 55.1C125.106 55.2333 124.939 55.3667 124.739 55.5C124.606 55.5667 124.439 55.7 124.239 55.9C124.172 55.9667 124.139 55.9667 124.139 55.9C123.939 56.0333 123.539 56.2 122.939 56.4C122.406 56.6 121.839 56.8 121.239 57C120.639 57.2667 120.072 57.5 119.539 57.7C119.072 57.9 118.772 58.0667 118.639 58.2C118.239 58.2 117.772 58.2667 117.239 58.4C116.772 58.5333 116.372 58.7333 116.039 59C115.239 59.1333 114.306 59.3 113.239 59.5C112.239 59.7667 111.139 59.7333 109.939 59.4C109.606 59.3333 109.439 59.3 109.439 59.3C109.439 59.3667 109.472 59.4333 109.539 59.5C109.606 59.5667 109.639 59.6333 109.639 59.7C109.639 59.7667 109.506 59.8 109.239 59.8C109.239 59.5333 109.172 59.3667 109.039 59.3C108.906 59.3 108.772 59.3 108.639 59.3C108.506 59.1667 108.339 59.0333 108.139 58.9C108.006 58.8333 107.772 58.7667 107.439 58.7C106.172 57.5 105.139 56.1333 104.339 54.6C103.539 53 103.039 51.2333 102.839 49.3C102.839 49.1 102.872 48.9 102.939 48.7C103.006 48.4333 103.006 48.2333 102.939 48.1V43.7C102.939 43.5667 102.972 43.4667 103.039 43.4C103.172 43.2667 103.206 43.1333 103.139 43L103.439 40.7C103.439 40.5 103.406 40.3667 103.339 40.3C103.339 40.1667 103.339 40.0333 103.339 39.9L103.439 39.8C103.572 39.8 103.639 39.7333 103.639 39.6C103.772 39.4667 103.806 39.3667 103.739 39.3C103.672 39.2333 103.639 39.1333 103.639 39L104.239 37.2C104.306 37.0667 104.339 36.9667 104.339 36.9C104.406 36.7667 104.372 36.6 104.239 36.4C104.306 36.2667 104.439 36.2667 104.639 36.4C104.706 36.0667 104.772 35.7333 104.839 35.4C104.906 35.0667 104.872 34.7667 104.739 34.5H104.839C104.972 34.3667 105.039 34.2333 105.039 34.1C105.039 33.9667 105.106 33.9 105.239 33.9C105.306 32.9 105.572 32.0333 106.039 31.3C106.506 30.5 106.772 29.6333 106.839 28.7C107.306 28.5 107.472 28.2 107.339 27.8C107.472 27.8 107.539 27.7 107.539 27.5C107.539 27.2333 107.606 27.0667 107.739 27V26.9V26.7C108.406 25.8333 108.772 24.9333 108.839 24C109.906 22.5333 110.672 21.0667 111.139 19.6C111.406 19.5333 111.539 19.4333 111.539 19.3C111.606 19.1 111.672 18.9 111.739 18.7C112.072 18.1667 112.406 17.5333 112.739 16.8C113.072 16.0667 113.539 15.4333 114.139 14.9C114.339 14.4333 114.606 13.9667 114.939 13.5C115.272 13.0333 115.606 12.5333 115.939 12C117.072 10.4 118.206 8.8 119.339 7.2C120.472 5.53333 122.006 4.06667 123.939 2.8C124.272 2.46667 124.639 2.23333 125.039 2.1C125.439 1.96666 125.906 1.8 126.439 1.6C127.972 0.666664 129.539 0.766665 131.139 1.9C131.472 2.16667 131.872 2.36667 132.339 2.5C132.806 2.56666 133.139 2.83333 133.339 3.3C133.606 3.36666 133.706 3.46666 133.639 3.6C133.639 3.66666 133.672 3.8 133.739 4C133.806 4.13333 133.906 4.26667 134.039 4.4C134.172 4.53333 134.172 4.7 134.039 4.9C133.972 5.03333 133.972 5.16667 134.039 5.3C134.172 5.43333 134.139 5.63333 133.939 5.9C133.872 6.23333 133.606 6.63333 133.139 7.1L132.939 8.6L132.239 9.4C132.039 9.93333 131.839 10.4667 131.639 11C131.439 11.4667 131.172 11.9 130.839 12.3C130.439 13.9 129.706 15.3333 128.639 16.6C127.572 17.8667 126.606 19.2 125.739 20.6C125.072 21.3333 124.506 22.1667 124.039 23.1C123.639 24.0333 123.139 24.9 122.539 25.7C122.339 25.8333 122.106 26 121.839 26.2C121.639 26.4 121.539 26.6667 121.539 27C120.672 27.7333 119.972 28.5333 119.439 29.4C118.972 30.2667 118.339 31.1333 117.539 32C117.406 32.4667 117.172 32.8 116.839 33C116.506 33.1333 116.272 33.4333 116.139 33.9C116.006 34.0333 115.872 34.1333 115.739 34.2C115.606 34.2 115.572 34.3333 115.639 34.6C115.239 34.7333 114.906 35.0667 114.639 35.6C114.439 36.1333 114.172 36.5 113.839 36.7C113.772 36.9 113.606 37.1 113.339 37.3C113.139 37.5 112.972 37.6333 112.839 37.7C112.372 38.1667 111.839 38.8 111.239 39.6C110.706 40.3333 109.872 41.0667 108.739 41.8C108.606 42 108.472 42.1 108.339 42.1V42.8C108.006 44.2 107.772 45.8 107.639 47.6C107.572 49.3333 107.739 51.0667 108.139 52.8C108.406 53.8 108.606 54.3333 108.739 54.4C108.872 54.4667 108.972 54.4333 109.039 54.3C109.172 54.1667 109.239 54.1333 109.239 54.2C109.306 54.2667 109.406 54.7333 109.539 55.6C109.539 55.6667 109.572 55.7 109.639 55.7H109.839C109.906 55.7667 110.006 55.8 110.139 55.8C111.406 56 112.272 56.0667 112.739 56C113.272 56 113.906 55.8333 114.639 55.5C115.706 55.1 116.706 54.7333 117.639 54.4C118.639 54 119.572 53.5333 120.439 53C120.439 53.0667 120.506 53.1 120.639 53.1H120.739V53.2C120.872 53.2 120.906 53.1333 120.839 53C120.972 53 121.039 53 121.039 53C121.039 52.9333 121.072 52.9 121.139 52.9H121.339L121.639 52.6C122.772 52.0667 123.806 51.3667 124.739 50.5C125.739 49.5667 126.806 48.8333 127.939 48.3C127.939 48.1 128.006 48 128.139 48C128.272 47.9333 128.339 47.8 128.339 47.6C128.406 47.6 128.406 47.6333 128.339 47.7C128.339 47.7667 128.406 47.7333 128.539 47.6C129.206 47.2667 129.772 47 130.239 46.8C130.772 46.5333 131.006 46.1333 130.939 45.6C131.072 45.6 131.139 45.6333 131.139 45.7C131.139 45.7667 131.172 45.8 131.239 45.8C131.506 45.4667 131.706 45.2333 131.839 45.1C131.972 44.9667 132.106 44.8667 132.239 44.8C132.372 44.7333 132.506 44.6667 132.639 44.6C132.839 44.4667 133.106 44.2333 133.439 43.9C133.239 43.7 133.206 43.6 133.339 43.6C133.472 43.5333 133.572 43.4333 133.639 43.3C133.772 43.4333 133.772 43.5333 133.639 43.6C133.572 43.6 133.572 43.6667 133.639 43.8C134.172 43.2 134.672 42.6333 135.139 42.1C135.672 41.5667 135.972 41.4333 136.039 41.7C136.439 41.3667 136.606 41.2 136.539 41.2C136.539 41.1333 136.472 41.1 136.339 41.1C136.272 41.1 136.206 41.1 136.139 41.1C136.139 41.0333 136.339 40.8667 136.739 40.6C137.072 40.5333 137.339 40.6 137.539 40.8C137.472 41.2667 137.639 41.5333 138.039 41.6C137.772 41.7333 137.672 41.8667 137.739 42C137.872 42.1333 137.972 42.2667 138.039 42.4C138.039 42.6667 138.006 42.8667 137.939 43C137.872 43.6667 137.772 44.1333 137.639 44.4C137.572 44.6 137.472 44.7333 137.339 44.8C137.272 44.8667 137.172 44.9333 137.039 45C136.972 45 136.939 45.1 136.939 45.3C136.939 45.4333 136.972 45.5333 137.039 45.6V45.7C136.972 45.7667 136.906 45.7333 136.839 45.6C136.839 45.4667 136.772 45.3667 136.639 45.3C136.639 45.4333 136.606 45.5667 136.539 45.7C136.539 45.8333 136.606 45.9333 136.739 46C136.472 46.2 136.272 46.3333 136.139 46.4C136.006 46.4667 135.906 46.5 135.839 46.5C135.839 46.5 135.806 46.5333 135.739 46.6C135.672 46.6667 135.572 46.8333 135.439 47.1C135.439 47.1 135.439 47.0667 135.439 47V46.9C135.172 46.8333 135.039 46.9333 135.039 47.2C135.039 47.4 134.939 47.5667 134.739 47.7C134.606 47.5667 134.572 47.4667 134.639 47.4C134.772 47.3333 134.806 47.2333 134.739 47.1C134.606 47.0333 134.472 47.1 134.339 47.3C134.272 47.4333 134.172 47.4 134.039 47.2C133.972 47.3333 133.906 47.5667 133.839 47.9C133.772 48.2333 133.639 48.4667 133.439 48.6C133.306 48.6 133.272 48.5333 133.339 48.4C133.472 48.2 133.539 48.0333 133.539 47.9C133.139 48.1667 132.906 48.4 132.839 48.6C132.639 48.8 132.539 48.9 132.539 48.9C132.539 48.9667 132.606 49 132.739 49C132.739 49.1333 132.706 49.3 132.639 49.5C132.572 49.6333 132.372 49.7667 132.039 49.9C131.906 50.5 131.572 50.8 131.039 50.8C131.039 50.8 131.072 50.7333 131.139 50.6V50.4C130.739 50.4 130.606 50.5333 130.739 50.8C130.606 50.7333 130.506 50.7667 130.439 50.9C130.372 51.0333 130.239 51.0333 130.039 50.9C129.906 51.0333 129.906 51.1333 130.039 51.2C130.239 51.2 130.272 51.2 130.139 51.2C130.072 51.2667 130.006 51.2667 129.939 51.2C129.939 51.1333 129.906 51.1 129.839 51.1C129.439 51.4333 129.006 51.7667 128.539 52.1C128.072 52.4333 127.706 52.8333 127.439 53.3C127.439 53.4333 127.472 53.5333 127.539 53.6C127.606 53.6667 127.672 53.7667 127.739 53.9ZM110.439 34C111.839 32.2667 113.106 30.6 114.239 29C115.372 27.3333 116.572 25.6333 117.839 23.9C117.839 23.8333 117.872 23.8 117.939 23.8C118.339 23.4667 118.639 23 118.839 22.4C119.106 21.8 119.372 21.3333 119.639 21C120.706 19.6 121.739 18.2 122.739 16.8C123.806 15.3333 124.706 13.8333 125.439 12.3C125.906 11.4333 126.339 10.6 126.739 9.8C127.139 8.93333 127.439 8.03333 127.639 7.1C128.372 6.63333 128.639 5.9 128.439 4.9C127.706 5.1 127.139 5.5 126.739 6.1C126.339 6.63333 125.872 7.1 125.339 7.5C125.072 8.1 124.739 8.66667 124.339 9.2C123.939 9.66666 123.539 10.1333 123.139 10.6C121.406 12.0667 120.072 13.7333 119.139 15.6C118.206 17.4667 117.272 19.3667 116.339 21.3C116.139 21.3667 115.972 21.4 115.839 21.4C115.706 21.9333 115.472 22.4 115.139 22.8C114.806 23.1333 114.639 23.5333 114.639 24C114.239 24.5333 113.939 25.0333 113.739 25.5C113.539 25.9667 113.272 26.4667 112.939 27C112.806 27.3333 112.639 27.6667 112.439 28C112.306 28.2667 112.172 28.5333 112.039 28.8V29.3C111.906 29.5667 111.739 29.8667 111.539 30.2C111.339 30.4667 111.272 30.8333 111.339 31.3C111.006 31.7 110.772 32.1333 110.639 32.6C110.572 33.0667 110.472 33.5333 110.339 34H110.439ZM125.239 53.1C125.239 53.1667 125.206 53.2 125.139 53.2C125.272 53.2667 125.339 53.2667 125.339 53.2C125.406 53.0667 125.439 52.9667 125.439 52.9C125.772 52.9667 126.039 52.8667 126.239 52.6C126.439 52.2667 126.639 52 126.839 51.8C126.839 51.8667 126.906 51.9333 127.039 52C127.172 51.8667 127.306 51.7333 127.439 51.6C127.639 51.4 127.706 51.2333 127.639 51.1C127.306 51.2333 126.939 51.4333 126.539 51.7C126.139 51.9 125.772 52.2333 125.439 52.7H125.139V52.9C125.139 52.9667 125.172 53 125.239 53C125.106 52.9333 124.972 52.9667 124.839 53.1C124.706 53.2333 124.706 53.3667 124.839 53.5C124.906 53.5 124.939 53.4667 124.939 53.4C125.006 53.2667 125.106 53.1667 125.239 53.1ZM132.139 48.7C131.872 48.8333 131.672 48.9333 131.539 49C131.406 49.0667 131.272 49.1667 131.139 49.3C131.072 49.3 131.039 49.3 131.039 49.3C131.106 49.2333 131.072 49.2 130.939 49.2C130.806 49.3333 130.672 49.4333 130.539 49.5C130.472 49.5667 130.472 49.7333 130.539 50C130.939 49.8667 131.239 49.7 131.439 49.5C131.706 49.3 131.939 49.0333 132.139 48.7ZM136.439 44.4C136.106 44.6 135.939 44.9 135.939 45.3C136.139 45.3667 136.339 45.3333 136.539 45.2C136.739 45 136.706 44.7333 136.439 44.4ZM128.639 51.1C128.639 50.8333 128.672 50.7 128.739 50.7C128.739 50.9667 128.739 51.1 128.739 51.1C128.939 51.1 129.039 51.0667 129.039 51C129.106 50.9333 129.206 50.8333 129.339 50.7C129.139 50.7 129.039 50.6333 129.039 50.5C128.839 50.5667 128.672 50.6667 128.539 50.8C128.472 50.9333 128.506 51.0333 128.639 51.1ZM134.539 46.1C134.272 46.1 134.039 46.2 133.839 46.4C133.639 46.5333 133.572 46.6667 133.639 46.8C133.772 46.7333 133.872 46.6667 133.939 46.6C134.072 46.5333 134.272 46.3667 134.539 46.1ZM128.239 50.7C127.906 50.7 127.739 50.8333 127.739 51.1C127.872 51.1 127.939 51.0667 127.939 51C128.006 50.9333 128.106 50.8333 128.239 50.7ZM133.039 48.5C133.039 48.7667 132.939 48.9333 132.739 49C132.739 48.8 132.772 48.6667 132.839 48.6C132.839 48.5333 132.906 48.5 133.039 48.5ZM129.839 50C129.906 50.0667 129.872 50.2 129.739 50.4C129.672 50.5333 129.706 50.6 129.839 50.6C129.906 50.4667 129.939 50.3667 129.939 50.3C129.939 50.1667 129.906 50.0667 129.839 50ZM129.339 50.4C129.272 50.4 129.206 50.4333 129.139 50.5C129.139 50.5 129.106 50.5 129.039 50.5C129.239 50.7 129.339 50.7667 129.339 50.7C129.339 50.6333 129.339 50.5333 129.339 50.4ZM104.739 38.6C104.739 38.3333 104.706 38.1667 104.639 38.1C104.639 38.1667 104.606 38.2667 104.539 38.4C104.539 38.4667 104.606 38.5333 104.739 38.6ZM137.039 45.6V45.7V46.1V45.5V45.6ZM133.539 43.8C133.472 43.6 133.439 43.6333 133.439 43.9L133.539 43.8ZM125.339 53L125.239 53.1V53H125.339ZM137.139 46.1C137.139 46.1667 137.106 46.2 137.039 46.2C137.039 46.2 137.039 46.1667 137.039 46.1H137.139ZM179.494 39.6C179.294 39.8 179.194 40 179.194 40.2C179.327 40.0667 179.427 40.0667 179.494 40.2C179.56 40.2667 179.627 40.1333 179.694 39.8C179.827 39.7333 179.894 39.6667 179.894 39.6C179.894 39.5333 179.96 39.5 180.094 39.5C180.16 39.9 179.994 40.3 179.594 40.7C179.26 41.0333 179.16 41.3667 179.294 41.7C179.16 41.8333 179.027 41.9667 178.894 42.1C178.827 42.2333 178.727 42.4667 178.594 42.8C178.46 42.9333 178.494 42.9667 178.694 42.9C178.894 42.8333 178.994 42.8333 178.994 42.9C178.527 43.2333 178.294 43.5 178.294 43.7C178.36 43.9 178.127 44.1667 177.594 44.5C177.527 44.5667 177.527 44.6333 177.594 44.7V44.8H177.494C177.36 44.9333 177.094 45 176.694 45C176.36 45 176.127 45.2333 175.994 45.7C175.86 45.6333 175.727 45.6333 175.594 45.7C175.527 45.7667 175.427 45.8333 175.294 45.9C175.027 46.7667 174.627 47.3333 174.094 47.6V47.5C173.894 47.7 173.76 47.8333 173.694 47.9C173.627 47.9667 173.56 48 173.494 48C173.494 48 173.46 48.0667 173.394 48.2C173.327 48.2667 173.227 48.4333 173.094 48.7L172.994 48.4C172.86 48.5333 172.76 48.7333 172.694 49C172.627 49.2667 172.527 49.3667 172.394 49.3C172.327 49.3667 172.36 49.5 172.494 49.7C172.427 49.8333 172.194 50.0333 171.794 50.3C171.46 50.5667 171.26 50.7333 171.194 50.8C171.194 51.0667 171.127 51.2 170.994 51.2C170.927 51.2 170.86 51.2667 170.794 51.4C170.66 51.4667 170.594 51.5 170.594 51.5C170.66 51.4333 170.627 51.4 170.494 51.4C170.294 51.7333 170.16 51.9333 170.094 52C170.027 52.0667 169.96 52.1 169.894 52.1C169.827 52.1 169.727 52.1 169.594 52.1C169.46 52.0333 169.294 52.1 169.094 52.3C168.96 52.3667 168.86 52.4 168.794 52.4C168.794 52.4 168.727 52.4667 168.594 52.6C168.46 52.9333 168.294 53.1667 168.094 53.3C167.96 53.3667 167.794 53.5667 167.594 53.9C167.594 53.7667 167.527 53.7667 167.394 53.9C167.06 54.1 166.627 54.3667 166.094 54.7C165.627 55.0333 165.094 55.3667 164.494 55.7C163.894 56.0333 163.26 56.3333 162.594 56.6C161.994 56.8667 161.46 57.0333 160.994 57.1C160.26 57.2333 159.527 57.2667 158.794 57.2C158.127 57.2 157.36 56.9667 156.494 56.5C156.427 56.4333 156.327 56.3667 156.194 56.3C156.06 56.3 155.994 56.2333 155.994 56.1L155.794 55.7L155.594 55.6C155.06 55.2667 154.66 54.8333 154.394 54.3C154.194 53.7667 154.027 53.2333 153.894 52.7C153.76 52.3667 153.66 52.2333 153.594 52.3C153.727 51.9667 153.727 51.7333 153.594 51.6C153.527 51.2667 153.494 50.7333 153.494 50C153.56 49.2 153.627 48.4 153.694 47.6C153.827 46.7333 153.927 45.9333 153.994 45.2C154.06 44.4667 154.127 43.9 154.194 43.5C154.06 43.5 153.96 43.5667 153.894 43.7C153.827 43.8333 153.794 43.9667 153.794 44.1C153.46 44.5 153.194 44.8667 152.994 45.2C152.794 45.4667 152.56 45.8333 152.294 46.3C151.96 46.4333 151.694 46.7 151.494 47.1C151.36 47.5 151.027 47.8667 150.494 48.2C150.36 48.4667 150.16 48.7 149.894 48.9C149.694 49.1 149.494 49.2667 149.294 49.4C148.96 50.1333 148.394 50.7333 147.594 51.2C146.66 52.2667 145.594 53.2333 144.394 54.1C143.26 54.9667 142.16 55.7667 141.094 56.5C140.294 56.9667 139.494 57.1667 138.694 57.1C137.894 57.0333 137.06 56.8667 136.194 56.6C135.927 56.4 135.527 56.2667 134.994 56.2C134.527 56.2 134.194 56.1333 133.994 56C133.66 55.8 133.427 55.4333 133.294 54.9C133.094 54.3667 132.927 54 132.794 53.8C132.727 52.4667 132.894 50.9333 133.294 49.2C133.694 47.4667 134.194 45.7333 134.794 44C135.394 42.2667 136.027 40.6 136.694 39C137.36 37.3333 137.894 35.9 138.294 34.7L139.294 31.8C139.36 31.5333 139.36 31.3667 139.294 31.3C139.294 31.1667 139.327 31.0667 139.394 31C139.86 30.9333 140.427 30.8667 141.094 30.8C141.827 30.7333 142.394 30.8667 142.794 31.2C143.26 31.0667 143.627 31.2 143.894 31.6C144.227 31.9333 144.46 32.2 144.594 32.4C144.594 32.8667 144.66 33.1 144.794 33.1C144.527 33.5667 144.427 33.9667 144.494 34.3C144.627 34.6333 144.627 34.9667 144.494 35.3L143.894 36.5C143.894 36.4333 143.76 36.5333 143.494 36.8C143.427 37 143.294 37.3667 143.094 37.9C142.96 38.4333 142.794 39 142.594 39.6C142.394 40.1333 142.194 40.6667 141.994 41.2C141.86 41.6667 141.727 42 141.594 42.2C141.06 43.0667 140.594 43.9333 140.194 44.8C139.86 45.6667 139.56 46.3667 139.294 46.9C138.96 48.0333 138.694 49.1333 138.494 50.2C138.294 51.2 138.127 52.3 137.994 53.5C140.994 51.3667 144.06 48.7 147.194 45.5C150.394 42.3 153.494 38.6 156.494 34.4C156.627 34.0667 156.76 33.8333 156.894 33.7C157.094 33.5 157.194 33.2 157.194 32.8C157.66 32.6667 157.927 32.5333 157.994 32.4C158.927 32.4 159.56 32.4333 159.894 32.5C160.227 32.5 160.694 32.7 161.294 33.1C161.36 33.7667 161.394 34.5333 161.394 35.4C161.394 36.2 161.327 37.0333 161.194 37.9C161.06 38.7 160.86 39.4667 160.594 40.2C160.394 40.8667 160.16 41.3667 159.894 41.7C159.694 42.4333 159.46 43.3333 159.194 44.4C158.927 45.4667 158.66 46.5667 158.394 47.7C158.194 48.8333 158.06 49.9333 157.994 51C157.994 52 158.16 52.8 158.494 53.4C159.76 53.2667 161.094 52.6667 162.494 51.6C163.96 50.5333 165.227 49.7333 166.294 49.2L166.394 48.9C166.66 48.7667 166.827 48.7 166.894 48.7C167.027 48.7 167.094 48.7 167.094 48.7C167.16 48.7 167.194 48.7 167.194 48.7C167.26 48.6333 167.394 48.4667 167.594 48.2C169.46 47.2 171.16 45.9667 172.694 44.5C173.094 44.1667 173.227 44.0333 173.094 44.1C172.96 44.1 173.127 44.0667 173.594 44C173.927 43.5333 174.26 43.1667 174.594 42.9C174.927 42.6333 175.26 42.3667 175.594 42.1C175.994 41.8333 176.427 41.5333 176.894 41.2C177.36 40.8 177.86 40.2667 178.394 39.6H179.494ZM179.094 40.3C179.094 40.3 179.127 40.2667 179.194 40.2C179.127 40.1333 179.06 40.0667 178.994 40C178.994 39.8667 179.027 39.9667 179.094 40.3ZM212.098 43.9C212.231 44.1 211.998 44.4333 211.398 44.9C210.798 45.3667 210.198 45.9 209.598 46.5C209.464 46.5667 209.164 46.8 208.698 47.2C208.231 47.6 207.964 47.8667 207.898 48L207.298 48.5L205.598 49.8L204.798 50.3L203.398 51.2C202.264 51.9333 201.198 52.6333 200.198 53.3C199.198 53.9667 197.964 54.5667 196.498 55.1C196.431 55.1 196.298 55.1333 196.098 55.2C195.964 55.2667 195.798 55.3333 195.598 55.4C195.331 55.4667 195.098 55.5333 194.898 55.6C194.631 55.6 194.398 55.6667 194.198 55.8C193.998 55.8667 193.731 55.9 193.398 55.9C193.331 55.9 193.364 55.8333 193.498 55.7C193.164 55.7667 192.898 55.8333 192.698 55.9C192.498 55.9 192.264 56 191.998 56.2C191.798 56.0667 191.598 56.0667 191.398 56.2C191.264 56.4 191.064 56.4333 190.798 56.3C190.664 56.5 190.464 56.5667 190.198 56.5C189.931 56.4333 189.698 56.5 189.498 56.7C189.364 56.6333 189.331 56.5667 189.398 56.5C189.464 56.5 189.431 56.4667 189.298 56.4C189.098 56.4667 188.831 56.4667 188.498 56.4C188.231 56.4 187.931 56.5 187.598 56.7C187.398 56.5667 187.231 56.5333 187.098 56.6C187.031 56.6667 186.831 56.6333 186.498 56.5L186.398 56.7C185.398 56.5 184.664 56.4333 184.198 56.5C183.931 56.4333 183.731 56.3667 183.598 56.3C183.464 56.2333 183.331 56.2667 183.198 56.4C182.464 56.2667 181.764 56.1333 181.098 56C180.498 55.8 179.831 55.5333 179.098 55.2C178.298 54.8667 177.598 54.4 176.998 53.8C176.398 53.1333 175.831 52.4333 175.298 51.7C175.031 51.2333 174.831 50.7667 174.698 50.3C174.564 49.8333 174.431 49.4 174.298 49C174.164 48.4667 174.098 48 174.098 47.6C174.098 47.1333 174.164 46.6333 174.298 46.1C174.431 45.3667 174.664 44.3667 174.998 43.1C175.264 41.8333 175.764 40.7333 176.498 39.8L178.798 37.2L180.298 35.2C180.831 34.8 181.264 34.4667 181.598 34.2C181.931 33.9333 182.331 33.5333 182.798 33C183.131 32.6667 183.531 32.4 183.998 32.2C184.464 31.9333 184.864 31.6333 185.198 31.3C185.798 30.9 186.264 30.5333 186.598 30.2C187.064 29.8667 187.564 29.5667 188.098 29.3C188.631 28.9667 189.131 28.7333 189.598 28.6C189.798 28.4667 190.064 28.4 190.398 28.4C190.731 28.4 190.998 28.3333 191.198 28.2C191.331 28.1333 191.464 28.0667 191.598 28C191.731 27.9333 191.898 27.9 192.098 27.9C192.431 28.4333 192.864 28.9 193.398 29.3C193.998 29.6333 194.464 30.0667 194.798 30.6C195.264 30.7333 195.531 30.9667 195.598 31.3C195.664 31.6333 195.864 31.9333 196.198 32.2C196.331 32.7333 196.331 33.2 196.198 33.6C196.131 34 195.964 34.4333 195.698 34.9C195.564 35.0333 195.498 35.1667 195.498 35.3C195.498 35.4333 195.464 35.5667 195.398 35.7C195.264 36.0333 195.031 36.3333 194.698 36.6C194.431 36.8 194.164 37.0667 193.898 37.4C193.764 37.5333 193.631 37.7333 193.498 38C193.431 38.2667 193.331 38.5333 193.198 38.8C192.931 39.0667 192.598 39.4 192.198 39.8C191.798 40.2 191.431 40.6 191.098 41C190.764 41.4667 190.331 41.8 189.798 42C189.331 42.2 188.931 42.5 188.598 42.9C188.398 43.0333 188.298 43.2333 188.298 43.5C187.764 44.0333 187.131 44.5333 186.398 45C185.731 45.4 185.131 45.8667 184.598 46.4C183.531 46.6 182.531 47 181.598 47.6C180.731 48.2 179.698 48.3667 178.498 48.1C178.364 48.1667 178.331 48.2333 178.398 48.3C178.531 48.3667 178.698 48.4 178.898 48.4C178.698 48.7333 178.664 49 178.798 49.2C178.998 49.3333 179.131 49.5 179.198 49.7C179.731 50.2333 180.364 50.7333 181.098 51.2C181.831 51.6667 182.631 51.9667 183.498 52.1C185.964 52.8333 188.298 52.8667 190.498 52.2C191.231 52.0667 191.898 51.9333 192.498 51.8C193.164 51.6667 193.931 51.4333 194.798 51.1C195.864 50.7 196.831 50.2667 197.698 49.8L198.998 49.2C199.198 49.0667 199.298 49.0333 199.298 49.1C199.364 49.1 199.364 49.1333 199.298 49.2C199.298 49.2 199.298 49.2333 199.298 49.3C199.298 49.3 199.398 49.2333 199.598 49.1L202.198 47.9C202.931 47.3667 203.531 46.9667 203.998 46.7C204.464 46.3667 205.164 45.8333 206.098 45.1C206.164 45.0333 206.364 44.9 206.698 44.7C207.031 44.4333 207.364 44.1667 207.698 43.9C208.098 43.6333 208.464 43.4 208.798 43.2C209.131 42.9333 209.364 42.7667 209.498 42.7L210.498 41.7C211.298 41.1667 211.964 40.7333 212.498 40.4C213.098 40 213.531 39.7333 213.798 39.6C213.998 39.8 214.131 40.1 214.198 40.5C214.264 40.8333 214.398 41 214.598 41C214.198 41.6 213.898 42.0667 213.698 42.4C213.564 42.6667 213.431 42.8667 213.298 43C213.231 43.1333 213.098 43.2667 212.898 43.4C212.764 43.4667 212.498 43.6333 212.098 43.9ZM190.898 32.7C190.698 32.8333 190.464 33 190.198 33.2C189.931 33.4 189.698 33.5667 189.498 33.7C189.231 33.7 189.064 33.7667 188.998 33.9C188.864 33.9667 188.731 34.0333 188.598 34.1C188.531 34.1667 188.431 34.2333 188.298 34.3L187.498 34.9C187.164 35.2333 186.831 35.5 186.498 35.7C186.164 35.8333 185.831 36.0333 185.498 36.3C185.098 36.8333 184.698 37.2667 184.298 37.6C183.964 37.8667 183.598 38.2667 183.198 38.8C182.464 39.2667 181.864 39.8333 181.398 40.5C180.664 41.2333 179.998 41.9667 179.398 42.7C178.798 43.3667 178.331 44.0667 177.998 44.8C179.264 44.4 180.464 43.7667 181.598 42.9C182.731 42.0333 183.931 41.1333 185.198 40.2C185.598 39.8667 185.998 39.5333 186.398 39.2C186.798 38.8667 187.164 38.4667 187.498 38C188.098 37.6667 188.764 37.1333 189.498 36.4C190.298 35.6 190.964 34.8333 191.498 34.1C191.631 33.7667 191.764 33.4667 191.898 33.2C192.098 32.9333 192.131 32.6667 191.998 32.4C191.864 32.4 191.664 32.4333 191.398 32.5C191.198 32.5 191.031 32.5667 190.898 32.7Z" fill="#CFCFF4"/>
</svg>
